<?xml version="1.0" encoding="UTF-8"?>
<svg width="605px" height="254px" viewBox="0 0 605 254" version="1.1" xmlns="http://www.w3.org/2000/svg" xmlns:xlink="http://www.w3.org/1999/xlink">
    <!-- Generator: Sketch 49.3 (51167) - http://www.bohemiancoding.com/sketch -->
    <title>castle_drawbridge</title>
    <desc>Created with Sketch.</desc>
    <defs></defs>
    <g id="10-GDPR-onboarding" stroke="none" stroke-width="1" fill="none" fill-rule="evenodd">
        <g id="10.20-gdpr---accepted" transform="translate(-423.000000, -109.000000)">
            <g id="castle_drawbridge" transform="translate(423.000000, 109.000000)">
                <path d="M255.311551,185 C253.482632,185 252,183.525127 252,181.705778 L252,57.2942218 C252,55.4748733 253.482632,54 255.311551,54 L338.688449,54 C340.517368,54 342,55.4748733 342,57.2942218 L342,181.705778 C342,183.525127 340.517368,185 338.688449,185 L255.311551,185 Z" id="Stroke-1" fill="#B8C1C1" fill-rule="nonzero"></path>
                <path d="M318.554221,24.2601063 C318.554221,22.4595993 320.036853,21 321.865772,21 L338.688449,21 C340.517368,21 342,22.4595993 342,24.2601063 L342,56.7398937 C342,58.5404007 340.517368,60 338.688449,60 L255.311551,60 C253.482632,60 252,58.5404007 252,56.7398937 L252,24.2601063 C252,22.4595993 253.482632,21 255.311551,21 L272.13489,21 C273.963809,21 275.446441,22.4595993 275.446441,24.2601063 L275.446441,34.0723744 L285.277111,34.0723744 L285.277111,24.2601063 C285.277111,22.4595993 286.759742,21 288.588661,21 L305.411339,21 C307.240258,21 308.722889,22.4595993 308.722889,24.2601063 L308.722889,34.0723744 L318.554221,34.0723744 L318.554221,24.2601063 Z" id="Stroke-3" fill="#B8C1C1" fill-rule="nonzero"></path>
                <g id="banner" transform="translate(460.000000, 0.000000)">
                    <rect id="Rectangle-6" fill="#B8C1C1" x="36" y="65" width="2" height="46"></rect>
                    <g id="Group-8" fill-rule="nonzero">
                        <path d="M18.3128136,11.5505871 C18.3128136,10.7765517 18.9402933,10.149072 19.7143288,10.149072 C20.4883642,10.149072 21.1158439,10.7765517 21.1158439,11.5505871 L21.1158439,18.9965568 C21.1158439,19.7705923 20.4883642,20.398072 19.7143288,20.398072 C18.9402933,20.398072 18.3128136,19.7705923 18.3128136,18.9965568 L18.3128136,11.5505871 Z" id="Stroke-17" fill="#FF806C"></path>
                        <path d="M52.7889932,11.5505871 C52.7889932,10.7765517 53.4164729,10.149072 54.1905083,10.149072 C54.9645438,10.149072 55.5920235,10.7765517 55.5920235,11.5505871 L55.5920235,18.9965568 C55.5920235,19.7705923 54.9645438,20.398072 54.1905083,20.398072 C53.4164729,20.398072 52.7889932,19.7705923 52.7889932,18.9965568 L52.7889932,11.5505871 Z" id="Stroke-18" fill="#FF806C"></path>
                        <path d="M70.0385053,0.000112121212 C72.5654706,0.000112121212 73.904725,3.74013508 73.904725,8.28474848 C73.904725,12.8291152 72.565445,16.5691045 70.0385053,16.5691045 C68.4338825,16.5691045 67.3717073,15.1455499 66.7579793,12.9520742 L7.14677372,12.9520742 C6.53304573,15.1455499 5.47087056,16.5691045 3.86624773,16.5691045 C1.33930803,16.5691045 2.8030303e-05,12.8291152 2.8030303e-05,8.28474848 C2.8030303e-05,3.74013508 1.33928238,0.000112121212 3.86624773,0.000112121212 C5.47083839,0.000112121212 6.53299415,1.42371957 7.14674956,3.61714242 L66.7580035,3.61714242 C67.3717589,1.42371957 68.4339146,0.000112121212 70.0385053,0.000112121212 Z M69.8419929,2.75952226 C69.8851826,2.78352718 69.9557229,2.80314242 70.0385053,2.80314242 C70.1000422,2.80314242 70.1576799,2.7918924 70.2041573,2.77368662 C70.2273743,2.76459223 70.2371314,2.75882474 70.2344329,2.76097023 C70.1844374,2.80072071 70.1160755,2.87947771 70.0385662,2.99639309 C70.0011769,2.94026102 69.9642709,2.89072936 69.9281844,2.84810363 C69.889753,2.8027082 69.8615424,2.77566537 69.8477353,2.76420582 L69.8419929,2.75952226 Z M69.9661632,3.11261752 C69.6825125,3.59531106 69.424431,4.35405934 69.2444131,5.28479795 C69.1169142,5.94399946 68.5398176,6.42017273 67.8683992,6.42017273 L6.03635379,6.42017273 C5.36493546,6.42017273 4.78783879,5.94399946 4.66033997,5.28479795 C4.48032206,4.35405934 4.22224057,3.59531106 3.93858987,3.11261752 C3.9137916,3.07041786 3.88957287,3.03166862 3.86618687,2.99639309 C3.72598969,3.20686965 3.57899793,3.51014808 3.44293406,3.89012221 C3.04180902,5.01031036 2.80305833,6.58662829 2.80305833,8.28474848 C2.80305833,9.98273207 3.04180858,11.5589716 3.44292984,12.6791177 C3.57900445,13.0591111 3.72600851,13.3624003 3.86621531,13.5728746 C3.88959742,13.5376071 3.91381236,13.4988663 3.93860698,13.4566751 C4.22225061,12.9740203 4.48032189,12.2152794 4.66033352,11.2844521 C4.78781877,10.6252349 5.36492266,10.1490439 6.03635379,10.1490439 L67.8683992,10.1490439 C68.5398304,10.1490439 69.1169343,10.6252349 69.2444195,11.2844521 C69.4244311,12.2152794 69.6825024,12.9740203 69.966146,13.4566751 C69.9909407,13.4988663 70.0151556,13.5376071 70.0385377,13.5728746 C70.1787445,13.3624003 70.3257486,13.0591111 70.4618232,12.6791177 C70.8629445,11.5589716 71.1016947,9.98273207 71.1016947,8.28474848 C71.1016947,6.58662829 70.862944,5.01031036 70.461819,3.89012221 C70.3257551,3.51014808 70.1787633,3.20686965 70.0385662,2.99639309 C70.0151802,3.03166862 69.9909614,3.07041786 69.9661632,3.11261752 Z M4.05701403,13.8050093 C4.06071337,13.8080796 4.06337885,13.8100314 4.06493002,13.8109178 C4.06421351,13.8105083 4.06348906,13.8101001 4.06275675,13.8096931 L4.05701403,13.8050093 Z" id="Stroke-19" fill="#FF806C"></path>
                        <path d="M58.3950538,72.3568636 L53.583372,72.3568636 L53.583372,76.9998311 C53.583372,77.7738665 52.9558923,78.4013462 52.1818568,78.4013462 C51.4078214,78.4013462 50.7803417,77.7738665 50.7803417,76.9998311 L50.7803417,72.3568636 L45.9686598,72.3568636 L45.9686598,76.9998311 C45.9686598,77.7738665 45.3411801,78.4013462 44.5671447,78.4013462 C43.7931093,78.4013462 43.1656295,77.7738665 43.1656295,76.9998311 L43.1656295,72.3568636 L38.3539477,72.3568636 L38.3539477,76.9998311 C38.3539477,77.7738665 37.726468,78.4013462 36.9524326,78.4013462 C36.1783971,78.4013462 35.5509174,77.7738665 35.5509174,76.9998311 L35.5509174,72.3568636 L30.7392356,72.3568636 L30.7392356,76.9998311 C30.7392356,77.7738665 30.1117559,78.4013462 29.3377205,78.4013462 C28.563685,78.4013462 27.9362053,77.7738665 27.9362053,76.9998311 L27.9362053,72.3568636 L23.1244955,72.3568636 L23.1244955,76.9998311 C23.1244955,77.7738665 22.4970157,78.4013462 21.7229803,78.4013462 C20.9489449,78.4013462 20.3214652,77.7738665 20.3214652,76.9998311 L20.3214652,72.3568636 L15.5097833,72.3568636 L15.5097833,76.9998311 C15.5097833,77.7738665 14.8823036,78.4013462 14.1082682,78.4013462 C13.3342327,78.4013462 12.706753,77.7738665 12.706753,76.9998311 L12.706753,70.9680163 C12.7067157,70.9637981 12.706697,70.9595755 12.706697,70.9553485 L12.706697,18.996697 C12.706697,18.2226615 13.3341767,17.5951818 14.1082121,17.5951818 L59.7964848,17.5951818 C60.5705203,17.5951818 61.198,18.2226615 61.198,18.996697 L61.198,70.9398629 C61.198056,70.9450274 61.1980841,70.9501987 61.1980841,70.9553765 L61.1980841,76.9998311 C61.1980841,77.7738665 60.5706044,78.4013462 59.7965689,78.4013462 C59.0225335,78.4013462 58.3950538,77.7738665 58.3950538,76.9998311 L58.3950538,72.3568636 Z" id="Combined-Shape" fill="#FF5C49"></path>
                    </g>
                    <g id="boomerang-logo" transform="translate(22.000000, 30.000000)">
                        <rect id="Rectangle-11" x="0" y="0" width="30" height="30"></rect>
                        <path d="M11.5635468,28.2480693 C11.5635468,28.2480693 13.1672074,26.2274741 15.1838906,23.5044468 C17.0850865,20.9379355 19.6608281,17.9550561 19.4509639,14.3042738 C19.2438316,10.7028911 16.0896596,7.37799503 13.9311628,5.06150626 C11.5804353,2.53910177 9.99714028,1.00317721 9.99714028,1.00317721 C9.99714028,1.00317721 12.3967946,0.12759436 14.7857695,1.63302222 C18.3919568,3.90515216 24.4670909,9.49612926 24.7273722,14.0217383 C25.0254042,19.2064288 19.1362917,25.4519507 15.4970726,27.9771276 C13.8554129,29.116091 11.5635468,28.2480693 11.5635468,28.2480693 Z M6.36509666,24.294428 C6.36509666,24.294428 7.50653418,22.86165 8.94223681,20.9308232 C10.2956556,19.1108148 12.1292307,16.9956288 11.9799658,14.4069921 C11.832457,11.8533507 9.58721172,9.49547998 8.05041035,7.8529839 C6.3771382,6.06442054 5.25,4.9752557 5.25,4.9752557 C5.25,4.9752557 6.9583933,4.35446978 8.65900978,5.42182597 C11.2261153,7.0331306 15.5507838,10.9977413 15.7359224,14.2066568 C15.9481545,17.8831904 11.755943,22.311869 9.16525614,24.1022075 C7.99672515,24.9098885 6.36509666,24.294428 6.36509666,24.294428 Z" id="Combined-Shape" fill="#175D8D"></path>
                    </g>
                </g>
                <path d="M574.591234,108.283376 C574.591234,106.470018 576.073342,105 577.901615,105 L590.689619,105 C592.517892,105 594,106.470018 594,108.283376 L594,180.716624 C594,182.529982 592.517892,184 590.689619,184 L527.310381,184 C525.482108,184 524,182.529982 524,180.716624 L524,108.283376 C524,106.470018 525.482108,105 527.310381,105 L540.099047,105 C541.92732,105 543.409428,106.470018 543.409428,108.283376 L543.409428,112.346792 L547.673861,112.346792 L547.673861,108.283376 C547.673861,106.470018 549.155969,105 550.984243,105 L567.015757,105 C568.844031,105 570.326139,106.470018 570.326139,108.283376 L570.326139,112.346792 L574.591234,112.346792 L574.591234,108.283376 Z" id="Stroke-4" fill="#6F7878" fill-rule="nonzero"></path>
                <path d="M512.591234,108.283376 C512.591234,106.470018 514.073342,105 515.901615,105 L528.689619,105 C530.517892,105 532,106.470018 532,108.283376 L532,180.716624 C532,182.529982 530.517892,184 528.689619,184 L465.310381,184 C463.482108,184 462,182.529982 462,180.716624 L462,108.283376 C462,106.470018 463.482108,105 465.310381,105 L478.099047,105 C479.92732,105 481.409428,106.470018 481.409428,108.283376 L481.409428,112.346792 L485.673861,112.346792 L485.673861,108.283376 C485.673861,106.470018 487.155969,105 488.984243,105 L505.015757,105 C506.844031,105 508.326139,106.470018 508.326139,108.283376 L508.326139,112.346792 L512.591234,112.346792 L512.591234,108.283376 Z" id="Stroke-4" fill="#8C9696" fill-rule="nonzero"></path>
                <path d="M449.591234,108.283376 C449.591234,106.470018 451.073342,105 452.901615,105 L465.689619,105 C467.517892,105 469,106.470018 469,108.283376 L469,180.716624 C469,182.529982 467.517892,184 465.689619,184 L402.310381,184 C400.482108,184 399,182.529982 399,180.716624 L399,108.283376 C399,106.470018 400.482108,105 402.310381,105 L415.099047,105 C416.92732,105 418.409428,106.470018 418.409428,108.283376 L418.409428,112.346792 L422.673861,112.346792 L422.673861,108.283376 C422.673861,106.470018 424.155969,105 425.984243,105 L442.015757,105 C443.844031,105 445.326139,106.470018 445.326139,108.283376 L445.326139,112.346792 L449.591234,112.346792 L449.591234,108.283376 Z" id="Stroke-4" fill="#9FA7A7" fill-rule="nonzero"></path>
                <path d="M385.591234,82.3062388 C385.591234,80.4802535 387.073342,79 388.901615,79 L401.689619,79 C403.517892,79 405,80.4802535 405,82.3062388 L405,181.693761 C405,183.519746 403.517892,185 401.689619,185 L338.310381,185 C336.482108,185 335,183.519746 335,181.693761 L335,82.3062388 C335,80.4802535 336.482108,79 338.310381,79 L351.099047,79 C352.92732,79 354.409428,80.4802535 354.409428,82.3062388 L354.409428,89.0807221 L358.673861,89.0807221 L358.673861,82.3062388 C358.673861,80.4802535 360.155969,79 361.984243,79 L378.015757,79 C379.844031,79 381.326139,80.4802535 381.326139,82.3062388 L381.326139,89.0807221 L385.591234,89.0807221 L385.591234,82.3062388 Z" id="Stroke-4" fill="#B8C1C1" fill-rule="nonzero"></path>
                <g id="banner" transform="translate(60.000000, 0.000000)">
                    <rect id="Rectangle-6" fill="#B8C1C1" x="36" y="65" width="2" height="46"></rect>
                    <g id="Group-8" fill-rule="nonzero">
                        <path d="M18.3128136,11.5505871 C18.3128136,10.7765517 18.9402933,10.149072 19.7143288,10.149072 C20.4883642,10.149072 21.1158439,10.7765517 21.1158439,11.5505871 L21.1158439,18.9965568 C21.1158439,19.7705923 20.4883642,20.398072 19.7143288,20.398072 C18.9402933,20.398072 18.3128136,19.7705923 18.3128136,18.9965568 L18.3128136,11.5505871 Z" id="Stroke-17" fill="#FF806C"></path>
                        <path d="M52.7889932,11.5505871 C52.7889932,10.7765517 53.4164729,10.149072 54.1905083,10.149072 C54.9645438,10.149072 55.5920235,10.7765517 55.5920235,11.5505871 L55.5920235,18.9965568 C55.5920235,19.7705923 54.9645438,20.398072 54.1905083,20.398072 C53.4164729,20.398072 52.7889932,19.7705923 52.7889932,18.9965568 L52.7889932,11.5505871 Z" id="Stroke-18" fill="#FF806C"></path>
                        <path d="M70.0385053,0.000112121212 C72.5654706,0.000112121212 73.904725,3.74013508 73.904725,8.28474848 C73.904725,12.8291152 72.565445,16.5691045 70.0385053,16.5691045 C68.4338825,16.5691045 67.3717073,15.1455499 66.7579793,12.9520742 L7.14677372,12.9520742 C6.53304573,15.1455499 5.47087056,16.5691045 3.86624773,16.5691045 C1.33930803,16.5691045 2.8030303e-05,12.8291152 2.8030303e-05,8.28474848 C2.8030303e-05,3.74013508 1.33928238,0.000112121212 3.86624773,0.000112121212 C5.47083839,0.000112121212 6.53299415,1.42371957 7.14674956,3.61714242 L66.7580035,3.61714242 C67.3717589,1.42371957 68.4339146,0.000112121212 70.0385053,0.000112121212 Z M69.8419929,2.75952226 C69.8851826,2.78352718 69.9557229,2.80314242 70.0385053,2.80314242 C70.1000422,2.80314242 70.1576799,2.7918924 70.2041573,2.77368662 C70.2273743,2.76459223 70.2371314,2.75882474 70.2344329,2.76097023 C70.1844374,2.80072071 70.1160755,2.87947771 70.0385662,2.99639309 C70.0011769,2.94026102 69.9642709,2.89072936 69.9281844,2.84810363 C69.889753,2.8027082 69.8615424,2.77566537 69.8477353,2.76420582 L69.8419929,2.75952226 Z M69.9661632,3.11261752 C69.6825125,3.59531106 69.424431,4.35405934 69.2444131,5.28479795 C69.1169142,5.94399946 68.5398176,6.42017273 67.8683992,6.42017273 L6.03635379,6.42017273 C5.36493546,6.42017273 4.78783879,5.94399946 4.66033997,5.28479795 C4.48032206,4.35405934 4.22224057,3.59531106 3.93858987,3.11261752 C3.9137916,3.07041786 3.88957287,3.03166862 3.86618687,2.99639309 C3.72598969,3.20686965 3.57899793,3.51014808 3.44293406,3.89012221 C3.04180902,5.01031036 2.80305833,6.58662829 2.80305833,8.28474848 C2.80305833,9.98273207 3.04180858,11.5589716 3.44292984,12.6791177 C3.57900445,13.0591111 3.72600851,13.3624003 3.86621531,13.5728746 C3.88959742,13.5376071 3.91381236,13.4988663 3.93860698,13.4566751 C4.22225061,12.9740203 4.48032189,12.2152794 4.66033352,11.2844521 C4.78781877,10.6252349 5.36492266,10.1490439 6.03635379,10.1490439 L67.8683992,10.1490439 C68.5398304,10.1490439 69.1169343,10.6252349 69.2444195,11.2844521 C69.4244311,12.2152794 69.6825024,12.9740203 69.966146,13.4566751 C69.9909407,13.4988663 70.0151556,13.5376071 70.0385377,13.5728746 C70.1787445,13.3624003 70.3257486,13.0591111 70.4618232,12.6791177 C70.8629445,11.5589716 71.1016947,9.98273207 71.1016947,8.28474848 C71.1016947,6.58662829 70.862944,5.01031036 70.461819,3.89012221 C70.3257551,3.51014808 70.1787633,3.20686965 70.0385662,2.99639309 C70.0151802,3.03166862 69.9909614,3.07041786 69.9661632,3.11261752 Z M4.05701403,13.8050093 C4.06071337,13.8080796 4.06337885,13.8100314 4.06493002,13.8109178 C4.06421351,13.8105083 4.06348906,13.8101001 4.06275675,13.8096931 L4.05701403,13.8050093 Z" id="Stroke-19" fill="#FF806C"></path>
                        <path d="M58.3950538,72.3568636 L53.583372,72.3568636 L53.583372,76.9998311 C53.583372,77.7738665 52.9558923,78.4013462 52.1818568,78.4013462 C51.4078214,78.4013462 50.7803417,77.7738665 50.7803417,76.9998311 L50.7803417,72.3568636 L45.9686598,72.3568636 L45.9686598,76.9998311 C45.9686598,77.7738665 45.3411801,78.4013462 44.5671447,78.4013462 C43.7931093,78.4013462 43.1656295,77.7738665 43.1656295,76.9998311 L43.1656295,72.3568636 L38.3539477,72.3568636 L38.3539477,76.9998311 C38.3539477,77.7738665 37.726468,78.4013462 36.9524326,78.4013462 C36.1783971,78.4013462 35.5509174,77.7738665 35.5509174,76.9998311 L35.5509174,72.3568636 L30.7392356,72.3568636 L30.7392356,76.9998311 C30.7392356,77.7738665 30.1117559,78.4013462 29.3377205,78.4013462 C28.563685,78.4013462 27.9362053,77.7738665 27.9362053,76.9998311 L27.9362053,72.3568636 L23.1244955,72.3568636 L23.1244955,76.9998311 C23.1244955,77.7738665 22.4970157,78.4013462 21.7229803,78.4013462 C20.9489449,78.4013462 20.3214652,77.7738665 20.3214652,76.9998311 L20.3214652,72.3568636 L15.5097833,72.3568636 L15.5097833,76.9998311 C15.5097833,77.7738665 14.8823036,78.4013462 14.1082682,78.4013462 C13.3342327,78.4013462 12.706753,77.7738665 12.706753,76.9998311 L12.706753,70.9680163 C12.7067157,70.9637981 12.706697,70.9595755 12.706697,70.9553485 L12.706697,18.996697 C12.706697,18.2226615 13.3341767,17.5951818 14.1082121,17.5951818 L59.7964848,17.5951818 C60.5705203,17.5951818 61.198,18.2226615 61.198,18.996697 L61.198,70.9398629 C61.198056,70.9450274 61.1980841,70.9501987 61.1980841,70.9553765 L61.1980841,76.9998311 C61.1980841,77.7738665 60.5706044,78.4013462 59.7965689,78.4013462 C59.0225335,78.4013462 58.3950538,77.7738665 58.3950538,76.9998311 L58.3950538,72.3568636 Z" id="Combined-Shape" fill="#FF5C49"></path>
                    </g>
                    <g id="boomerang-logo" transform="translate(22.000000, 30.000000)">
                        <rect id="Rectangle-11" x="0" y="0" width="30" height="30"></rect>
                        <path d="M11.5635468,28.2480693 C11.5635468,28.2480693 13.1672074,26.2274741 15.1838906,23.5044468 C17.0850865,20.9379355 19.6608281,17.9550561 19.4509639,14.3042738 C19.2438316,10.7028911 16.0896596,7.37799503 13.9311628,5.06150626 C11.5804353,2.53910177 9.99714028,1.00317721 9.99714028,1.00317721 C9.99714028,1.00317721 12.3967946,0.12759436 14.7857695,1.63302222 C18.3919568,3.90515216 24.4670909,9.49612926 24.7273722,14.0217383 C25.0254042,19.2064288 19.1362917,25.4519507 15.4970726,27.9771276 C13.8554129,29.116091 11.5635468,28.2480693 11.5635468,28.2480693 Z M6.36509666,24.294428 C6.36509666,24.294428 7.50653418,22.86165 8.94223681,20.9308232 C10.2956556,19.1108148 12.1292307,16.9956288 11.9799658,14.4069921 C11.832457,11.8533507 9.58721172,9.49547998 8.05041035,7.8529839 C6.3771382,6.06442054 5.25,4.9752557 5.25,4.9752557 C5.25,4.9752557 6.9583933,4.35446978 8.65900978,5.42182597 C11.2261153,7.0331306 15.5507838,10.9977413 15.7359224,14.2066568 C15.9481545,17.8831904 11.755943,22.311869 9.16525614,24.1022075 C7.99672515,24.9098885 6.36509666,24.294428 6.36509666,24.294428 Z" id="Combined-Shape" fill="#175D8D"></path>
                    </g>
                </g>
                <path d="M50.5912341,108.283376 C50.5912341,106.470018 52.0733423,105 53.9016155,105 L66.6896186,105 C68.5178918,105 70,106.470018 70,108.283376 L70,180.716624 C70,182.529982 68.5178918,184 66.6896186,184 L3.31038136,184 C1.48210822,184 0,182.529982 0,180.716624 L0,108.283376 C0,106.470018 1.48210822,105 3.31038136,105 L16.0990466,105 C17.9273197,105 19.409428,106.470018 19.409428,108.283376 L19.409428,112.346792 L23.6738612,112.346792 L23.6738612,108.283376 C23.6738612,106.470018 25.1559694,105 26.9842426,105 L43.0157574,105 C44.8440306,105 46.3261388,106.470018 46.3261388,108.283376 L46.3261388,112.346792 L50.5912341,112.346792 L50.5912341,108.283376 Z" id="Stroke-4" fill="#6F7878" fill-rule="nonzero"></path>
                <path d="M112.591234,108.283376 C112.591234,106.470018 114.073342,105 115.901615,105 L128.689619,105 C130.517892,105 132,106.470018 132,108.283376 L132,180.716624 C132,182.529982 130.517892,184 128.689619,184 L65.3103814,184 C63.4821082,184 62,182.529982 62,180.716624 L62,108.283376 C62,106.470018 63.4821082,105 65.3103814,105 L78.0990466,105 C79.9273197,105 81.409428,106.470018 81.409428,108.283376 L81.409428,112.346792 L85.6738612,112.346792 L85.6738612,108.283376 C85.6738612,106.470018 87.1559694,105 88.9842426,105 L105.015757,105 C106.844031,105 108.326139,106.470018 108.326139,108.283376 L108.326139,112.346792 L112.591234,112.346792 L112.591234,108.283376 Z" id="Stroke-4" fill="#8C9696" fill-rule="nonzero"></path>
                <path d="M175.591234,108.283376 C175.591234,106.470018 177.073342,105 178.901615,105 L191.689619,105 C193.517892,105 195,106.470018 195,108.283376 L195,180.716624 C195,182.529982 193.517892,184 191.689619,184 L128.310381,184 C126.482108,184 125,182.529982 125,180.716624 L125,108.283376 C125,106.470018 126.482108,105 128.310381,105 L141.099047,105 C142.92732,105 144.409428,106.470018 144.409428,108.283376 L144.409428,112.346792 L148.673861,112.346792 L148.673861,108.283376 C148.673861,106.470018 150.155969,105 151.984243,105 L168.015757,105 C169.844031,105 171.326139,106.470018 171.326139,108.283376 L171.326139,112.346792 L175.591234,112.346792 L175.591234,108.283376 Z" id="Stroke-4" fill="#9FA7A7" fill-rule="nonzero"></path>
                <path d="M239.591051,82.3062388 C239.591051,80.4802535 241.073173,79 242.901463,79 L255.689587,79 C257.517878,79 259,80.4802535 259,82.3062388 L259,181.693761 C259,183.519746 257.517878,185 255.689587,185 L192.310413,185 C190.482122,185 189,183.519746 189,181.693761 L189,82.3062388 C189,80.4802535 190.482122,79 192.310413,79 L205.098537,79 C206.926827,79 208.408949,80.4802535 208.408949,82.3062388 L208.408949,89.0807221 L212.673423,89.0807221 L212.673423,82.3062388 C212.673423,80.4802535 214.155545,79 215.983836,79 L232.015502,79 C233.843793,79 235.325915,80.4802535 235.325915,82.3062388 L235.325915,89.0807221 L239.591051,89.0807221 L239.591051,82.3062388 Z" id="Stroke-5" fill="#B8C1C1" fill-rule="nonzero"></path>
                <path d="M211,134.658431 L211,117.758111 C211,110.733796 216.617539,105 223.5,105 C230.382461,105 236,110.733796 236,117.758111 L236,134.658431 C236,136.503929 234.534119,138 232.725863,138 L214.274137,138 C212.465881,138 211,136.503929 211,134.658431 Z" id="Stroke-6" fill="#175D8D" fill-rule="nonzero"></path>
                <path d="M357,134.658431 L357,117.758111 C357,110.733796 362.617539,105 369.5,105 C376.382461,105 382,110.733796 382,117.758111 L382,134.658431 C382,136.503929 380.534119,138 378.725863,138 L360.274137,138 C358.465881,138 357,136.503929 357,134.658431 Z" id="Stroke-7" fill="#175D8D" fill-rule="nonzero"></path>
                <path d="M320.482367,185 L274.517619,185 C272.698617,185 275.692304,143.94463 283.206829,130.941315 C285.887299,126.302964 288.782618,122.625978 291.704653,119.812026 C292.751072,118.804312 293.734475,117.973388 294.631583,117.306163 C295.204877,116.879776 295.645636,116.590618 295.930917,116.425353 C296.909927,115.858208 298.090759,115.858216 299.069763,116.425374 C299.355039,116.59064 299.795789,116.879801 300.369069,117.30619 C301.266155,117.973417 302.249532,118.804344 303.295924,119.812059 C306.217877,122.626014 309.113115,126.303003 311.793509,130.941354 C319.307813,143.944661 322.301369,185 320.482367,185 Z" id="Stroke-8" fill="#175D8D" fill-rule="nonzero"></path>
                <path d="M430,217.51361 C435.722184,217.949976 440.731906,217.953206 445.029167,217.523302 C449.497212,217.076312 463.141105,216.048388 467.538061,211 C464.353753,214.693887 463.929579,216.86509 466.26554,217.51361 C468.6015,218.16213 476.84632,218.16213 491,217.51361" id="Path-2" stroke="#56ACF2"></path>
                <path d="M30,226.235673 C38.5363725,226.92139 46.0098924,226.926467 52.42056,226.250903 C59.0860045,225.54849 79.4400089,223.933181 85.9994031,216 C81.2490414,221.804679 80.6162574,225.21657 84.1010509,226.235673 C87.5858444,227.254776 99.8854941,227.254776 121,226.235673" id="Path-2" stroke="#047CC0"></path>
                <path d="M524,243.444126 C531.59831,243.942829 538.250564,243.946521 543.956762,243.455202 C549.88974,242.944356 568.007041,241.769586 573.845623,236 C569.617279,240.221585 569.054031,242.70296 572.15588,243.444126 C575.25773,244.185291 586.20577,244.185291 605,243.444126" id="Path-2" stroke="#56ACF2"></path>
                <path d="M323.314607,195.078652 L324.831461,206.707865 L270.168539,206.707865 L271.685393,195.078652 L323.314607,195.078652 Z M323.213483,194.303371 L271.786517,194.303371 L273,185 L322,185 L323.213483,194.303371 Z M324.932584,207.483146 L326.449438,219.11236 L268.550562,219.11236 L270.067416,207.483146 L324.932584,207.483146 Z M326.550562,219.88764 L328.067416,231.516854 L266.932584,231.516854 L268.449438,219.88764 L326.550562,219.88764 Z M328.168539,232.292135 L329.685393,243.921348 L265.314607,243.921348 L266.831461,232.292135 L328.168539,232.292135 Z M329.786517,244.696629 L331,254 L264,254 L265.213483,244.696629 L329.786517,244.696629 Z" id="Combined-Shape" fill="#FF5C49"></path>
            </g>
        </g>
    </g>
</svg>