<?xml version="1.0" encoding="UTF-8"?>
<svg version="1.1" viewBox="0 0 490 296" xmlns="http://www.w3.org/2000/svg" xmlns:xlink="http://www.w3.org/1999/xlink">
<title>puffer</title>
<desc>Created with Sketch.</desc>
<defs>
<polygon id="a" points="262.28 190.39 262.28 0.089176 0.48813 0.089176 0.48813 190.39"/>
</defs>
<g fill="none" fill-rule="evenodd">
<g transform="translate(-564 -432)">
<g transform="translate(564 432)">
<path d="m488.11 225.43c-1.7546-1.6609-4.5243-1.5839-6.1852 0.17064-7.8995 8.3467-17.789 7.2949-22.952 5.9402 2.053-8.8053 1.5288-17.232 0.028879-25.207 0.070008-2.5124 0.88385-18.892 9.991-27.488 4.1261-3.8951 9.3198-5.6182 15.871-5.255 2.4162 0.13039 4.4753-1.7161 4.6083-4.1296 0.13214-2.4127-1.7161-4.4761-4.1296-4.6083-8.9698-0.48831-16.5 2.0854-22.388 7.658-4.2661 4.0386-7.0971 9.1658-8.9803 14.213-2.5877-9.3085-4.6057-18.132-2.6664-26.3 4.6345-19.518 22.179-28.436 22.346-28.52 2.1694-1.0624 3.0672-3.6833 2.004-5.8536-1.0632-2.1694-3.6824-3.0681-5.8544-2.004-0.8716 0.42618-21.399 10.724-27.009 34.357-2.7181 11.448 0.59157 23.098 3.7918 34.365 3.8548 13.567 7.84 27.596 2.1396 42.395-3.8233 9.9245-11.541 14.023-17.343 15.712-9.3741 2.7294-20.806 1.03-27.796-4.1357-2.2114-1.6338-3.9878-3.9896-5.4484-6.8529 2.7259-1.3503 6.4355-3.4453 10.163-6.3629 3.3061-2.5877 6.0688-5.4011 8.2933-8.3905 1.4037 0.2529 2.95 0.4113 4.5847 0.4113 7.1793 0 15.971-2.9893 20.968-13.751 1.0177-2.1913 0.065633-4.7938-2.1265-5.8116-2.193-1.0177-4.7938-0.064758-5.8107 2.1265-3.3508 7.2161-8.919 8.7073-13.015 8.6871 1.3013-3.468 1.9751-7.0945 1.9734-10.837-0.00175-3.1784-0.71058-6.5143-1.5664-10.012 0.091885-0.41655 0.14439-0.84622 0.10851-1.2934-0.077009-0.95561-0.46643-1.8045-1.0466-2.48-1.0597-4.2933-2.0066-8.6329-1.8981-12.944 0.20827-0.50931 0.32729-1.065 0.32729-1.6496 0-0.13214-0.005251-0.63357-0.056007-1.4177 0.81997-5.2987 3.587-10.527 10.086-15.544 1.9121-1.4772 2.2656-4.225 0.78847-6.1371-1.4772-1.9138-4.2259-2.2665-6.138-0.78847-3.4549 2.6682-6.1073 5.4169-8.1192 8.2006-2.8432-6.8687-8.0431-14.514-17.545-19.699 4.9776-1.808 9.9394-5.437 13.857-11.968 1.2435-2.0722 0.57144-4.7597-1.5008-6.0032-2.0722-1.2426-4.7606-0.57144-6.0032 1.5008-7.8934 13.157-20.201 8.6233-21.597 8.0544-0.4008-0.16714-0.81122-0.2494-1.2225-0.29228-7.7315-5.9043-10.719-13.834-5.689-26.742 0.87773-2.2516-0.23715-4.7886-2.4888-5.6654-2.2508-0.87773-4.7877 0.23715-5.6645 2.4879-10.564 27.113 8.0194 38.534 22.917 44.768 16.06 6.7182 18.976 21.976 19.505 27.358-0.59857 4.982 0.028879 9.8361 0.96086 14.306-4.6407-1.1464-10.977-4.2302-14.815-12.431-1.0239-2.1886-3.6282-3.1311-5.8177-2.109-2.1886 1.0247-3.1329 3.629-2.109 5.8177 6.6018 14.108 18.545 17.303 24.95 17.968 0.58369 2.4949 1.0239 4.8052 1.0247 6.7182 7e-3 13.772-12.639 22.173-19.387 25.677-1.7485-6.1642-2.8642-13.302-3.959-20.328-2.0005-12.832-3.8907-24.953-9.6646-32.376-11.568-14.874-26.212-17.933-26.83-18.057-2.361-0.46818-4.6494 1.0589-5.1307 3.419s1.0449 4.6678 3.4024 5.1596c0.12076 0.025378 12.17 2.6612 21.651 14.851 2.5605 3.2913 4.2364 8.6058 5.5368 14.677-5.4869 1.9961-16.954 5.1255-23.413-0.59157-1.8106-1.6014-4.575-1.4325-6.1773 0.37804-1.6014 1.8097-1.4317 4.575 0.37804 6.1765 4.638 4.1042 10.392 5.4458 15.937 5.4458 5.6462 0 11.073-1.3923 14.88-2.6769 0.26778 1.6426 0.52681 3.2956 0.78322 4.9426 2.5404 16.294 5.1675 33.144 15.961 41.118 6.2815 4.6407 14.926 7.1417 23.604 7.1417 0.028003 0 0.055131-0.00175 0.083135-0.00175v20.263c0 2.417 1.9585 4.3755 4.3755 4.3755 2.4162 0 4.3755-1.9585 4.3755-4.3755v-21.157c1.0134-0.21178 2.0171-0.45855 3.006-0.74646 10.319-3.006 18.211-9.8615 22.401-19.388 2.7347 0.75434 5.9988 1.2864 9.5167 1.2864 7.2852 0 15.64-2.2761 22.533-9.5614 1.6609-1.7555 1.5848-4.5243-0.17064-6.1852" fill="#95C4F3"/>
<g transform="translate(146)">
<path d="m57.63 39.123c-18.782 12.943-31.634 32.165-34.74 56.044-1.3174-1.2844-3.0378-2.3684-5.0513-3.0707-5.5709-1.9435-11.227-0.24851-12.634 3.7854-1.4066 4.0332 1.9689 8.8778 7.5405 10.821 0.074828 0.025401 0.14897 0.043936 0.2238 0.06865-5.3183 1.3476-8.9279 5.4096-8.1728 9.3892 0.79634 4.1973 6.1407 6.7078 11.938 5.6087 2.516-0.4778 4.7018-1.5577 6.3069-2.9691-1.176 25.126 6.5334 45.391 21.587 59.85l18.066 12.814c15.066 7.8302 34.03 12.154 56.226 12.56 18.761 0.34394 34.999-3.6776 48.693-10.714l16.142-10.553c15.965-12.98 27.025-30.647 33.126-49.403 11.681 13.127 27.174 26.123 42.738 26.123 0 0-10.702-15.043-10.702-53.044 0-37.752 10.702-53.044 10.702-53.044-15.564 0-31.057 12.997-42.738 26.123-7.0394-21.641-22.343-37.716-42.489-47.558l-21.001-7.5844c-9.9673-2.492-20.64-3.7661-31.738-3.7661-16.294 0-31.672 2.9444-45.246 8.4556l-18.776 10.063z" fill="#FF806C"/>
<g transform="translate(.77346 17.084)">
<mask id="b" fill="white">
<use xlink:href="#a"/>
</mask>
<path d="m63.71 171.44c14.749 7.6146 33.083 11.675 54.497 12.067 17.201 0.30686 32.98-3.1346 46.903-10.254l15.841-10.356c14.588-11.908 25.614-28.395 31.891-47.69 0.38032-1.1698 1.3572-2.0465 2.5606-2.2984 1.2048-0.25126 2.4501 0.15927 3.2677 1.0785 8.77 9.8554 21.329 21.349 34.164 24.27-3.3563-7.7705-8.1247-23.314-8.1247-48.91 0-25.516 4.7973-41.122 8.1501-48.915-12.844 2.9114-25.414 14.414-34.19 24.276-0.81762 0.91854-2.0629 1.3304-3.2677 1.0778-1.2034-0.25195-2.1803-1.1286-2.5606-2.2977-6.4689-19.885-20.495-35.6-40.566-45.454l-20.66-7.4622c-9.6741-2.4027-20.014-3.6206-30.737-3.6206-15.694 0-30.424 2.7364-43.786 8.135l-18.444 9.8849c-18.81 13.02-30.264 31.534-33.128 53.552-0.16751 1.2892-1.049 2.3732-2.2771 2.7995-1.2288 0.42769-2.5922 0.12288-3.5231-0.78467-1.0098-0.98513-2.319-1.776-3.7854-2.2874-4.0339-1.4073-7.592-0.24645-8.262 1.6744-0.66796 1.9146 1.3799 5.0211 5.3863 6.4352 0.083753 0.024714 0.15103 0.045309 0.21762 0.067277 1.4471 0.48055 2.4041 1.8577 2.3492 3.3817-0.055606 1.524-1.1094 2.8291-2.5874 3.2032-3.808 0.96522-5.9924 3.5828-5.643 5.4227 0.37895 1.9991 3.727 3.6728 7.9249 2.8751 1.8151-0.34394 3.4778-1.1162 4.6805-2.1741 1.0339-0.90892 2.5126-1.1121 3.7538-0.51556s2.0059 1.8783 1.9414 3.254c-1.1094 23.709 5.7378 42.897 20.354 57.038l17.661 12.527zm56.653 18.951c-0.75858 0-1.5178-0.006865-2.2812-0.021282-22.584-0.41327-42.013-4.7691-57.746-12.947-0.13936-0.072769-0.27391-0.15446-0.40229-0.24577l-18.067-12.814c-0.13867-0.098169-0.26911-0.20664-0.39199-0.32403-14.741-14.158-22.545-33.605-22.752-56.519-0.68787 0.21762-1.3977 0.3968-2.124 0.53478-7.778 1.4732-14.783-2.1892-15.949-8.341-0.72151-3.8032 1.0153-7.5844 4.3325-10.25-3.6192-3.2238-5.2243-7.695-3.7929-11.8 2.0629-5.9128 9.5334-8.5009 17.006-5.8957 0.46682 0.1627 0.92609 0.34394 1.3751 0.54302 4.1863-21.72 16.324-39.999 35.338-53.102 0.10503-0.072769 0.21419-0.13867 0.32609-0.19908l18.776-10.063c0.10778-0.056979 0.21762-0.10847 0.33021-0.15446 14.23-5.7783 29.887-8.7076 46.537-8.7076 11.346 0 22.304 1.3016 32.57 3.8677 0.11258 0.028146 0.2238 0.062471 0.33364 0.1016l21.001 7.5851c0.1167 0.041876 0.22998 0.089931 0.34119 0.14416 20.024 9.7833 34.541 24.983 42.28 44.173 14.681-15.324 28.605-23.087 41.441-23.087 1.2796 0 2.4529 0.7119 3.0439 1.8474 0.59176 1.1355 0.50183 2.505-0.23204 3.5533-0.090618 0.13249-10.082 15.147-10.082 51.076 0 36.147 9.9769 50.925 10.078 51.07 0.72906 1.0497 0.82037 2.4247 0.22792 3.5568-0.59176 1.1327-1.7581 1.8501-3.0357 1.8501-12.823 0-26.73-7.7451-41.395-23.039-6.9323 18.275-18.022 33.937-32.305 45.549-0.091991 0.074828-0.1881 0.14485-0.28696 0.21007l-16.142 10.553c-0.10023 0.065217-0.2032 0.12494-0.30961 0.17986-14.359 7.3785-30.513 11.113-48.043 11.114z" fill="#FCCEC7" mask="url(#b)"/>
</g>
<polyline points="57.899 48.047 57.017 12.221 84.074 35.72" fill="#FF806C"/>
<path d="m57.897 51.479c-1.857 0-3.3838-1.4815-3.4297-3.3481l-0.88215-35.826c-0.033638-1.3593 0.73867-2.6108 1.9689-3.1895 1.2309-0.58009 2.687-0.37757 3.714 0.5135l27.056 23.499c1.4314 1.2432 1.5838 3.4112 0.3405 4.8426-1.2432 1.4314-3.4105 1.5838-4.8419 0.3405l-21.183-18.397 0.69062 28.048c0.046682 1.8954-1.4519 3.4696-3.3474 3.5162-0.028833 6.865e-4 -0.056979 6.865e-4 -0.085812 6.865e-4" fill="#FCCEC7"/>
<polyline points="181.75 170.93 187.73 206.27 157.6 186.86" fill="#FF806C"/>
<path d="m187.73 209.7c-0.646 0-1.2927-0.18192-1.859-0.54714l-30.126-19.407c-1.594-1.0263-2.0533-3.1503-1.0263-4.7444 1.0263-1.5934 3.1497-2.054 4.7444-1.0263l23.586 15.194-4.6771-27.665c-0.31579-1.8686 0.94325-3.6405 2.8126-3.9563 1.8707-0.31373 3.6405 0.94256 3.957 2.8119l5.9732 35.335c0.22654 1.3407-0.35972 2.6883-1.4952 3.4373-0.57254 0.37826-1.2309 0.56705-1.8892 0.56705" fill="#FCCEC7"/>
<polyline points="123.63 204.05 115.69 222.35 107.2 203.42" fill="#FF806C"/>
<path d="m115.69 225.78c-1.3517 0-2.5778-0.79291-3.1318-2.0272l-8.492-18.925c-0.77574-1.7293-0.003433-3.7606 1.7265-4.5364 1.73-0.77506 3.7613-0.003433 4.5371 1.7265l5.3066 11.827 4.8426-11.164c0.75446-1.7396 2.7755-2.538 4.5151-1.7835 1.7389 0.75446 2.5373 2.7755 1.7828 4.5151l-7.938 18.301c-0.54096 1.2474-1.7677 2.0574-3.1277 2.0664h-0.021282z" fill="#FCCEC7"/>
<polyline points="70.046 186.99 39.831 206.26 45.966 170.95" fill="#FF806C"/>
<path d="m39.831 209.69c-0.66384 0-1.327-0.19222-1.9023-0.57529-1.132-0.75446-1.7121-2.1048-1.4794-3.4449l6.1346-35.307c0.32403-1.868 2.1027-3.1194 3.9693-2.794 1.868 0.32403 3.1188 2.1014 2.7941 3.9693l-4.8027 27.643 23.655-15.087c1.5995-1.0195 3.7208-0.54851 4.7403 1.049 1.0188 1.5982 0.5492 3.7201-1.049 4.7396l-30.215 19.27c-0.56293 0.35904-1.2041 0.53822-1.8453 0.53822" fill="#FCCEC7"/>
<polyline points="88.859 142.35 65.255 150.08 75.459 127.44" fill="#FF806C"/>
<path d="m65.255 153.51c-0.95835 0-1.8913-0.4016-2.5538-1.1389-0.90892-1.0112-1.1348-2.4638-0.57597-3.7037l10.204-22.644c0.77918-1.7286 2.8112-2.4975 4.5398-1.719 1.7286 0.77849 2.4982 2.8112 1.719 4.5391l-7.0078 15.551 16.211-5.3066c1.8014-0.5897 3.74 0.39199 4.3297 2.1941 0.5897 1.8014-0.39268 3.74-2.1941 4.3304l-23.605 7.7272c-0.3508 0.11464-0.71053 0.17025-1.0675 0.17025" fill="#FCCEC7"/>
<polyline points="188.14 124.87 200.09 146.64 175.96 140.8" fill="#FF806C"/>
<path d="m200.09 150.08c-0.26842 0-0.53959-0.031579-0.80801-0.096796l-24.139-5.8476c-1.8426-0.44622-2.9746-2.3011-2.5277-4.1437 0.44554-1.8426 2.3011-2.9746 4.1437-2.5277l16.578 4.016-8.2085-14.953c-0.91304-1.662-0.30481-3.7483 1.3565-4.6606 1.662-0.91236 3.749-0.3048 4.6606 1.3565l11.953 21.772c0.65423 1.1918 0.54302 2.6574-0.28284 3.738-0.65835 0.86018-1.6723 1.3462-2.7261 1.3462" fill="#FCCEC7"/>
<polyline points="147.42 147.32 141.72 171.49 127.7 150.99" fill="#FF806C"/>
<path d="m141.72 174.92c-1.1197 0-2.1865-0.5492-2.8332-1.4952l-14.016-20.504c-1.0696-1.5652-0.66865-3.7009 0.89657-4.7712 1.5652-1.0696 3.7009-0.66796 4.7712 0.89725l9.6254 14.081 3.913-16.603c0.43455-1.8446 2.284-2.987 4.1279-2.5538 1.8453 0.43524 2.9883 2.2833 2.5538 4.1286l-5.6966 24.175c-0.31167 1.3236-1.3757 2.3382-2.7124 2.5874-0.21076 0.039131-0.42082 0.057666-0.62952 0.057666" fill="#FCCEC7"/>
<polyline points="166.32 78.751 190.77 74.374 177.52 95.383" fill="#FF806C"/>
<path d="m177.52 98.816c-0.62609 0-1.259-0.17094-1.8275-0.52929-1.6037-1.0112-2.0835-3.1311-1.073-4.7341l9.0982-14.429-16.79 3.0062c-1.8652 0.33432-3.6494-0.90755-3.9838-2.7735-0.33364-1.8659 0.90755-3.6501 2.7741-3.9838l24.448-4.3778c1.3394-0.2389 2.6931 0.33364 3.4524 1.4616 0.75995 1.1279 0.78192 2.5977 0.056293 3.7483l-13.247 21.01c-0.65217 1.0346-1.767 1.6016-2.9066 1.6016" fill="#FCCEC7"/>
<polyline points="117.09 98.678 135.3 81.786 135.5 106.62" fill="#FF806C"/>
<path d="m135.5 110.06c-1.8824 0-3.4167-1.5185-3.4318-3.4043l-0.13867-17.057-12.505 11.6c-1.3895 1.2899-3.5609 1.2082-4.8508-0.18192-1.2892-1.3895-1.2076-3.5616 0.18192-4.8508l18.209-16.892c0.9968-0.92403 2.446-1.1746 3.694-0.63501 1.2487 0.5389 2.0616 1.7636 2.0725 3.1236l0.20252 24.836c0.015103 1.8961-1.5089 3.4455-3.4043 3.4606h-0.028833z" fill="#FCCEC7"/>
<polyline points="105.56 53.917 112.72 30.134 125.46 51.455" fill="#FF806C"/>
<path d="m105.56 57.35c-0.32815 0-0.6611-0.047368-0.99062-0.14691-1.8151-0.54645-2.8442-2.4611-2.2977-4.2762l7.1609-23.782c0.3913-1.3023 1.5158-2.2503 2.8648-2.4172 1.3476-0.16682 2.6705 0.47849 3.368 1.6462l12.74 21.321c0.97208 1.627 0.44142 3.7346-1.1863 4.7073-1.6263 0.97208-3.7346 0.44142-4.7066-1.1863l-8.7494-14.642-4.9174 16.333c-0.4476 1.4856-1.8103 2.4439-3.2856 2.4439" fill="#FCCEC7"/>
<polyline points="147.56 31.614 170.04 3.7062 175.5 39.124" fill="#FF806C"/>
<path d="m175.49 42.557c-1.6648 0-3.1263-1.2137-3.3879-2.9101l-4.2748-27.729-17.6 21.85c-1.189 1.476-3.3501 1.7087-4.8268 0.51968-1.476-1.189-1.7087-3.3501-0.51968-4.8268l22.48-27.908c0.85332-1.0593 2.2524-1.5151 3.5643-1.1616 1.3133 0.35286 2.2943 1.4471 2.5016 2.792l5.4597 35.418c0.28902 1.8735-0.99611 3.6268-2.8696 3.9151-0.17712 0.02746-0.35355 0.040503-0.52723 0.040503" fill="#FCCEC7"/>
<path d="m70.521 91.901c0 2.908-2.3574 5.2661-5.2654 5.2661-2.9087 0-5.2661-2.3581-5.2661-5.2661s2.3574-5.2654 5.2661-5.2654c2.908 0 5.2654 2.3574 5.2654 5.2654" fill="#FCCEC7"/>
</g>
<path d="m187.63 212.58c-12.247 12.941-27.679 10.551-34.861 8.441 3.183-12.729 2.459-24.932 0.281-36.478 0.073-3.216 1.073-27.196 14.514-39.92 6.108-5.782 13.774-8.334 23.424-7.806 2.756 0.142 5.115-1.962 5.267-4.719 0.15-2.757-1.962-5.115-4.719-5.267-12.378-0.673-22.75 2.865-30.847 10.53-6.92 6.551-11.12 15.186-13.677 23.301-4.173-14.714-7.908-28.633-4.832-41.588 6.707-28.254 32.075-41.113 32.32-41.234 2.48-1.216 3.505-4.211 2.29-6.691-1.215-2.479-4.209-3.505-6.69-2.289-1.214 0.595-29.826 14.948-37.65 47.904-3.781 15.926 0.661 31.561 5.364 48.113 5.518 19.424 11.224 39.51 2.998 60.865-5.597 14.53-16.887 20.527-25.372 22.999-13.843 4.031-30.103 1.599-40.459-6.051-3.573-2.639-6.362-6.516-8.609-11.221 6.744-3.2 19.034-10.191 27.33-21.684 2.084 0.419 4.425 0.686 6.915 0.686 9.808 0 21.825-4.086 28.655-18.799 1.163-2.504 0.075-5.477-2.43-6.64-2.506-1.164-5.478-0.075-6.64 2.429-5.519 11.887-15.021 13.421-21.226 12.96 2.042-4.902 3.281-10.394 3.278-16.514-2e-3 -4.459-1.029-9.206-2.256-14.197 0.15-0.543 0.228-1.115 0.183-1.71-0.091-1.187-0.605-2.233-1.364-3.037-1.575-6.35-3.005-12.772-2.833-19.159 0.307-0.648 0.493-1.365 0.493-2.13 0-0.199-0.01-1.005-0.099-2.262 1.198-7.73 5.25-15.373 14.785-22.737 2.186-1.688 2.589-4.828 0.901-7.013-1.687-2.186-4.829-2.591-7.013-0.901-5.559 4.293-9.615 8.74-12.521 13.243-3.954-10.631-11.871-23.101-27.748-30.771 7.722-2.09 15.66-7.139 21.763-17.311 1.42-2.368 0.653-5.439-1.715-6.86-2.368-1.42-5.44-0.653-6.86 1.715-11.933 19.89-31.253 12.262-32.107 11.912-0.56-0.234-1.139-0.341-1.712-0.365-10.782-8.177-16.388-19.908-8.75-39.512 1.002-2.572-0.271-5.471-2.844-6.473-2.574-1.003-5.471 0.27-6.474 2.843-14.594 37.458 11.178 53.278 31.833 61.919 23.654 9.896 27.718 32.466 28.416 40.071-0.918 7.596 0.214 14.988 1.711 21.696-6.92-1.288-17.475-5.467-23.668-18.702-1.171-2.501-4.147-3.578-6.648-2.409-2.501 1.17-3.58 4.147-2.41 6.648 9.424 20.138 26.705 24.159 35.257 24.872 0.943 3.93 1.679 7.587 1.68 10.635 0.011 21.09-20.081 33.496-29.436 38.13-2.741-9.128-4.412-19.833-6.053-30.36-2.812-18.035-5.468-35.068-13.462-45.346-16.129-20.738-36.464-24.987-37.322-25.158-2.702-0.538-5.319 1.213-5.867 3.911-0.547 2.699 1.2 5.335 3.896 5.893 0.176 0.036 17.658 3.826 31.4 21.494 3.908 5.024 6.387 13.143 8.296 22.334-2.744 1.054-6.863 2.435-11.54 3.325-7.235 1.377-17.245 1.792-23.848-4.05-2.069-1.83-5.228-1.637-7.058 0.432-1.83 2.068-1.636 5.228 0.432 7.058 6.324 5.596 14.199 7.432 21.813 7.432 8.523 0 16.714-2.302 22.037-4.207 0.463 2.793 0.904 5.615 1.342 8.422 3.564 22.86 7.25 46.499 22.154 57.511 8.703 6.43 20.688 9.893 32.729 9.893 0.447 0 0.893-0.012 1.34-0.022v29.946c0 2.761 2.239 5 5 5s5-2.239 5-5v-30.989c1.733-0.33 3.448-0.73 5.129-1.22 14.624-4.259 25.714-14.106 31.396-27.779 3.974 1.197 8.87 2.075 14.182 2.075 10.05 0 21.574-3.14 31.08-13.184 1.898-2.005 1.81-5.17-0.196-7.068-2.005-1.898-5.17-1.81-7.068 0.195" fill="#C2DBF4"/>
</g>
</g>
</g>
</svg>
