<?xml version="1.0" encoding="UTF-8"?>
<svg width="50px" height="57px" viewBox="0 0 50 57" version="1.1" xmlns="http://www.w3.org/2000/svg" xmlns:xlink="http://www.w3.org/1999/xlink">
    <!-- Generator: Sketch 47.1 (45422) - http://www.bohemiancoding.com/sketch -->
    <title>Group 6</title>
    <desc>Created with Sketch.</desc>
    <defs>
        <linearGradient x1="77.58652%" y1="6.65425525%" x2="23.4740886%" y2="90.8970325%" id="linearGradient-1">
            <stop stop-color="#95C4F3" offset="0%"></stop>
            <stop stop-color="#40D5BB" offset="100%"></stop>
        </linearGradient>
        <circle id="path-2" cx="25" cy="25" r="25"></circle>
    </defs>
    <g id="Boomerang-chat-bot" stroke="none" stroke-width="1" fill="none" fill-rule="evenodd">
        <g id="00.10-chat-bot--launchpad" transform="translate(-1244.000000, -760.000000)">
            <g id="Group-4" transform="translate(1202.000000, 760.000000)">
                <g id="Group-6" transform="translate(42.000000, 0.000000)">
                    <g id="crown_fill" transform="translate(0.000000, 7.000000)">
                        <mask id="mask-3" fill="white">
                            <use xlink:href="#path-2"></use>
                        </mask>
                        <use id="Oval-2" fill="url(#linearGradient-1)" xlink:href="#path-2"></use>
                        <g id="Page-1" mask="url(#mask-3)">
                            <g transform="translate(10.000000, 7.000000)">
                                <path d="M10.0388673,24.1896608 C10.0388673,24.1896608 8.91744332,25.0493567 8.99434194,26.2527945 C9.07124055,27.4560618 10.1034894,27.3701263 9.58736498,29.1751124 C9.07124055,30.9802691 8.2164894,33.3012092 9.51472903,34.1607346 C10.8129687,35.0202599 12.2409641,36.5115134 11.1498903,38.4585318 C10.0588166,40.4055502 8.77234194,41.7353336 10.1837982,43.6158544 C11.5950839,45.4963751 11.7447889,46.5383429 11.1498903,48.2573935 C10.5549917,49.9766147 10.0373327,51.60973 11.3606369,52.6411263 C12.683941,53.6726931 13.8450931,53.93067 13.5871161,52.8131677 C13.3289687,51.6956654 13.3289687,50.4064627 14.1032406,50.4064627 C14.8773419,50.4064627 14.0386184,47.1400618 13.3289687,47.1400618 C12.6194894,47.1400618 13.2645171,45.4210111 13.8450931,44.6472507 C14.4258396,43.8736608 13.9095447,41.9827392 12.8772959,41.9827392 C11.8452175,41.9827392 11.9098396,39.5758636 12.8130147,39.3180571 C13.7160194,39.0602507 13.9741668,35.7079143 13.3289687,35.4499373 C12.683941,35.1921309 11.5226184,34.590412 12.1678166,33.9888636 C12.8130147,33.3869742 13.8450931,30.5894673 13.0063696,30.0112783 C12.1678166,29.4330894 10.8167198,28.2296516 11.6213419,27.7999742 C12.4257935,27.3701263 12.2967198,24.4476378 11.7161438,24.1896608 C11.1357382,23.9318544 10.3614664,23.416071 10.0388673,24.1896608" id="Fill-1" fill="#56ACF2"></path>
                                <path d="M6.01098249,22.2286779 C5.34395945,24.7896917 4.8396,27.5063783 5.41011613,30.136277 C5.93357235,32.5498023 7.47870599,34.4460097 9.40509309,35.9152677 C13.0249548,38.6756041 20.071153,40.7106041 19.6411346,46.3959866 C19.5582682,47.4904705 21.2638488,47.4851848 21.3462037,46.3959866 C21.7627521,40.8886134 16.2282682,38.1942631 12.2764295,35.7994935 C10.180729,34.5297286 8.06780737,32.9269636 7.27495023,30.5040604 C6.44185346,27.9585627 6.99941106,25.1995903 7.65518065,22.6818853 C7.93191336,21.6194567 6.28771521,21.1660788 6.01098249,22.2286779" id="Fill-3" fill="#FFAA9D"></path>
                                <path d="M17.0160101,23.4731737 C15.7266369,26.0602751 14.1436507,28.4928972 12.2528995,30.681524 C11.3164756,31.7656069 10.3135539,32.792229 9.25095484,33.752865 C8.12850783,34.7675516 6.9042682,35.6707267 5.826153,36.7343488 C3.83190415,38.7021691 2.51729585,41.2991599 2.20168756,44.0906991 C1.95513456,46.2735286 2.5578765,48.8722244 4.68699631,49.9211829 C5.66792258,50.40457 6.53307465,48.9344594 5.5475447,48.4488558 C3.46002857,47.4203581 3.68339263,44.5413488 4.21162304,42.6586115 C4.97191336,39.9494272 6.76718065,38.0748742 8.87157696,36.3172889 C12.8650194,32.9823442 16.161259,29.0032244 18.4883373,24.3338926 C18.9763281,23.3546714 17.506047,22.4898604 17.0160101,23.4731737" id="Fill-5" fill="#FF806C"></path>
                                <path d="M5.65631106,16.9252991 C5.65631106,16.9252991 2.58514055,17.3730502 3.54492396,19.1006263 C4.50470737,20.8282023 4.95245853,21.4040041 4.1846659,22.4277276 C3.41687327,23.4512806 2.58514055,24.9227553 3.73691475,26.0745295 C4.88851843,27.2261332 5.46432028,28.3137968 4.76063825,29.6573912 C4.05678571,31.0011562 2.52120046,31.3210272 4.05678571,33.2404235 C5.59237097,35.1596493 6.2321129,37.2712069 5.46432028,38.5506908 C4.69652765,39.8303452 4.63258756,42.9015157 5.97618203,43.4773175 C7.3197765,44.0532899 6.55198387,45.3326032 6.55198387,46.0364558 C6.55198387,46.7403083 8.84001613,47.5109995 9.43116359,46.3563267 C10.0223111,45.2018244 7.70375806,44.3092207 8.3435,42.7095249 C8.98341244,41.1099995 6.36016359,40.4063175 6.93596544,39.1906032 C7.51176728,37.9748889 7.95968894,35.9915525 7.12795622,34.967829 C6.296053,33.9441055 5.33644009,32.2167 6.04012212,31.513018 C6.74397465,30.8091654 6.93596544,29.465571 6.48804378,29.0176493 C6.04012212,28.5697276 6.90391014,26.9383175 7.51176728,26.3304604 C8.11945392,25.7226032 8.91930184,24.7948751 7.44782719,24.6028843 C5.97618203,24.4108935 6.24302535,22.3556032 6.99990553,22.1078567 C7.75661521,21.8597691 8.31502535,20.6906032 7.20485484,20.4442207 C6.09468433,20.1976677 6.55198387,19.1006263 7.3197765,18.8446954 C8.08756912,18.5887645 7.25583641,17.1171194 5.65631106,16.9252991" id="Fill-7" fill="#95C4F3"></path>
                                <path d="M10.3259327,23.4853309 C10.2342,24.5167272 9.49931521,25.3765935 9.05923687,26.2792571 C8.59358249,27.2344369 8.33441198,28.2770866 8.68480369,29.3166673 C9.50306636,31.7441742 12.2270848,32.1764092 13.7035041,33.9994691 C15.4827438,36.1969622 14.7453014,38.7944645 13.6104074,41.0857364 C12.4912,43.344953 11.5198221,45.5187456 11.1950065,48.0465106 C10.8243244,50.930976 11.2057484,53.8850083 12.3063705,56.5766304 C12.7162691,57.5786995 14.366435,57.1403263 13.9507392,56.123423 C12.9762922,53.7405889 12.5815687,51.1927041 12.8334074,48.6269161 C13.0929189,45.984059 14.217753,43.7850313 15.3344028,41.4296488 C16.3335733,39.3218424 16.9600157,37.0317641 16.0771309,34.7655567 C15.6626286,33.701082 15.0051539,32.7404461 14.1192,32.0139161 C13.1848221,31.2473171 12.0281032,30.7758654 11.1382276,29.9589668 C10.0630111,28.9722433 10.0879051,27.9318101 10.7522,26.7206995 C11.3286839,25.6700359 11.9223889,24.7056488 12.0310018,23.4853309 C12.1281908,22.3927226 10.4226101,22.3992018 10.3259327,23.4853309" id="Fill-9" fill="#FF5C49"></path>
                                <path d="M14.8607005,23.6083857 C14.7184977,24.8721829 14.6134654,26.1787774 15.0779263,27.3927866 C15.4764009,28.4339018 16.2412949,29.2559157 17.1032074,29.9379433 C19.0853502,31.5062659 21.4492581,32.4738926 23.8068571,33.3264272 C28.0896498,34.874971 33.1688802,36.307229 35.3926313,40.6953949 C35.8886359,41.6742751 37.3602811,40.8121922 36.8649585,39.834676 C34.8255253,35.8103719 30.5099954,33.901547 26.4756313,32.4665608 C24.1630461,31.6440355 21.8032304,30.8900539 19.6778618,29.6364871 C18.6996636,29.0593212 17.6418387,28.3796806 16.9986866,27.4181922 C16.2412949,26.2856853 16.4216912,24.8890631 16.5657696,23.6083857 C16.6883641,22.5196991 14.9822719,22.5285654 14.8607005,23.6083857" id="Fill-11" fill="#FFAA9D"></path>
                                <path d="M19.4573793,17.2083747 C19.4573793,17.2083747 22.5285498,17.7442779 21.5687664,19.8113332 C20.6089829,21.8783885 20.1610613,22.5674069 20.9288539,23.7921581 C21.6966465,25.0172502 22.5285498,26.7779046 21.3767756,28.1559415 C20.2251719,29.5339783 19.64937,30.8354576 20.3530521,32.4433378 C21.0569046,34.050877 22.5924899,34.433665 21.0569046,36.7303931 C19.5213194,39.0271212 18.8815774,41.5533516 19.64937,43.0846742 C20.4169922,44.6156558 20.4811028,48.2904207 19.1375083,48.9794392 C17.7937433,49.6684576 18.5615359,51.1996097 18.5615359,52.0417433 C18.5615359,52.883877 16.2736742,53.8061488 15.6823562,52.4245313 C15.0913793,51.0430843 17.4099323,49.974688 16.7700198,48.0607479 C16.1302779,46.1469783 18.7535267,45.3046742 18.1777249,43.8502502 C17.601923,42.3956558 17.1540014,40.02237 17.9857341,38.7974484 C18.8174668,37.5725267 19.7772502,35.5054714 19.0733977,34.6633378 C18.3697157,33.8212041 18.1777249,32.2134945 18.6256465,31.6775912 C19.0733977,31.141688 18.2097802,29.1895544 17.601923,28.4621719 C16.9940659,27.7349599 16.194218,26.6249599 17.6658631,26.3952871 C19.1375083,26.1654438 18.870665,23.7060521 18.1137848,23.40937 C17.3569046,23.1128585 16.798665,21.7138493 17.9088355,21.4188724 C19.019006,21.1240659 18.5615359,19.8113332 17.7937433,19.5051028 C17.0259507,19.1988724 17.8578539,17.4380475 19.4573793,17.2083747" id="Fill-14" fill="#95C4F3"></path>
                                <path d="M22.0507894,22.5773475 C19.1806465,26.4197207 18.5741535,31.7818221 20.315029,36.230177 C21.2741304,38.6807023 22.8748493,40.50973 24.7707157,42.2925502 C26.690112,44.0971954 29.1541074,46.4749143 28.4139369,49.3968912 C28.1445359,50.4610249 29.7885636,50.9149143 30.0583055,49.8500986 C31.5251765,44.0586608 24.7773654,41.2292691 22.4874576,36.9125456 C20.2389829,32.6740848 20.658771,27.2725963 23.5231166,23.4378959 C24.1800797,22.5584212 22.7005912,21.7072507 22.0507894,22.5773475" id="Fill-16" fill="#FF806C"></path>
                                <path d="M0.0387391705,22.1459138 C0.0387391705,22.1459138 0.962034101,20.2991535 1.14669309,19.1911995 C1.33135207,18.0832456 0.500471889,16.4213147 1.42376682,14.5747249 C2.34706175,12.728135 4.84004332,3.21777097 10.9337899,1.46359585 C17.0278774,-0.29074977 23.8602599,2.01757281 25.5221908,5.43384931 C27.1842922,8.8499553 26.0434304,18.1964622 26.0434304,19.2121719 C26.0434304,20.0585682 24.6947207,20.819029 24.8853475,22.8572687 C24.9233705,23.2647802 24.7963429,25.345476 24.7659926,25.5598032 C24.6444212,26.4249553 24.2858452,27.3446696 23.7743244,27.3446696 C19.1706378,26.492135 14.907965,27.8561903 10.4747853,27.5151765 C10.6452922,27.1741627 11.3273198,26.8331488 11.1568129,26.8331488 C9.45174378,25.9806143 8.25819539,27.8561903 6.63820922,28.0355636 C6.50419078,27.7953194 6.58501106,27.1608631 6.72994194,26.8399691 C6.80240737,26.6796926 6.84946728,26.4278539 6.58859171,26.1320244 C6.30248111,25.8295452 6.11338894,25.5209276 6.11338894,25.2532318 C6.11338894,24.1821074 2.24850876,25.3463286 2.01576682,25.7187157 C1.78285438,26.0914438 -0.308412903,25.3713931 0.0387391705,22.1459138" id="Fill-22" fill="#175D8D"></path>
                                <path d="M23.5275668,17.1004779 C23.5275668,16.3630355 24.9221429,9.45869908 23.5275668,6.97833502 C22.1331613,4.49814147 16.4003779,2.82239954 11.2873871,4.09591567 C6.17456682,5.3696023 4.08278802,12.2739387 3.30817512,13.6148051 C2.53339171,14.9553304 3.23059447,16.1620078 3.07577419,16.9662889 C2.92095392,17.7707406 2.14617051,19.1114364 2.14617051,19.1114364 C1.8549447,21.4530078 3.60946083,21.9759525 3.80469124,21.7055286 C4.00026267,21.4349341 7.24279263,20.5899018 7.24279263,21.3672429 C7.24279263,21.5616207 7.40170507,21.7858373 7.64143779,22.0054502 C7.86053917,22.2201184 7.82098157,22.4030724 7.7601106,22.5193581 C7.63853917,22.7522705 7.57084793,23.2131507 7.68321198,23.3874088 C9.04249309,23.2571415 10.0438802,21.8954733 11.4746037,22.5144134 C11.6174885,22.5144134 11.0452673,22.7619894 10.902212,23.0095654 C14.0557373,23.2194594 17.2107972,23.5343857 20.3165806,22.7084502 C21.4054378,22.418759 22.7746083,21.6320401 23.3747926,20.2514456 C23.9002949,19.0427221 23.5275668,17.5253811 23.5275668,17.1004779" id="Fill-40" fill="#1C496D"></path>
                                <path d="M23.5275668,6.97830092 C22.1331613,4.49810737 16.4003779,2.82236544 11.2873871,4.09605207 C9.51735484,4.53698295 8.44486636,5.60742535 7.69412442,7.16995069 C6.37815207,9.90846221 4.66489862,20.1832088 11.2805668,20.9453747 C15.9570599,21.4841765 22.3214009,16.8433194 24.3916959,9.82627788 C24.7141244,8.73384009 23.9055806,7.65060968 23.5275668,6.97830092" id="Fill-42" fill="#047CC0"></path>
                                <path d="M16.3311521,3.90883548 C18.7272857,3.90883548 20.9931521,4.65582627 22.6509908,5.94690461 C20.9599032,3.79800599 18.0461106,2.4267894 14.8349539,2.4267894 C9.65358986,2.4267894 7.98910138,3.65119954 5.87515668,8.50484931 C4.74776498,11.0931442 6.27704147,13.4076051 6.36280645,13.8527986 C6.79998618,12.9342779 7.97324424,3.90883548 16.3311521,3.90883548" id="Fill-44" fill="#95C4F3"></path>
                            </g>
                        </g>
                    </g>
                    <g id="Group-4" transform="translate(11.000000, 0.000000)">
                        <polygon id="Fill-18" fill="#FF5C49" points="12.7395991 4.691553 8.47364516 0 6.13360829 5.89362673 0 3.77364516 2.91919816 10.6187512 10.1658618 9.30015207 17.4123088 7.981553 17.7335115 0.546672811"></polygon>
                        <polygon id="Fill-20" fill="#FFAA9D" points="17.8836221 11.15247 3.39181106 13.7894516 3 11.636765 17.4918111 9"></polygon>
                    </g>
                </g>
            </g>
        </g>
    </g>
</svg>