<?xml version="1.0" encoding="UTF-8"?>
<svg width="86px" height="50px" viewBox="0 0 86 50" version="1.1" xmlns="http://www.w3.org/2000/svg" xmlns:xlink="http://www.w3.org/1999/xlink">
    <!-- Generator: Sketch 46.2 (44496) - http://www.bohemiancoding.com/sketch -->
    <title>thanks_1</title>
    <desc>Created with Sketch.</desc>
    <defs>
        <linearGradient x1="91.0443979%" y1="91.3237835%" x2="0%" y2="10.8453233%" id="linearGradient-1">
            <stop stop-color="#56251A" offset="0%"></stop>
            <stop stop-color="#83231E" offset="54.5153295%"></stop>
            <stop stop-color="#993A1D" offset="100%"></stop>
        </linearGradient>
    </defs>
    <g id="01-Beta-feedback-overlay" stroke="none" stroke-width="1" fill="none" fill-rule="evenodd">
        <g id="01.70-feedback-positive-thanks" transform="translate(-1293.000000, -847.000000)">
            <g id="thanks_1" transform="translate(1293.000000, 847.000000)">
                <g id="like_128" transform="translate(29.000000, 4.000000)" fill-rule="nonzero" fill="#C0F5E8">
                    <path d="M35.8076923,0 C31.0005096,0 26.8058269,2.51029167 24.5,6.24754167 C22.1937019,2.51029167 17.9994904,0 13.1923077,0 C5.90591346,0 0,5.74520833 0,12.8333333 C0,16.3771667 1.43372115,19.6276667 3.76923077,22 C9.07442308,27.3890833 24.5,44 24.5,44 C24.5,44 39.9255769,27.3890833 45.2307692,22 C47.5662788,19.6276667 49,16.3771667 49,12.8333333 C49,5.74520833 43.0940865,0 35.8076923,0 Z M43.8696058,20.7317917 C39.5486538,25.12125 28.4284808,37.046625 24.5,41.2674167 C20.5715192,37.046625 9.45134615,25.12125 5.13039423,20.73225 C3.03705769,18.6060417 1.88461538,15.8010417 1.88461538,12.8333333 C1.88461538,6.76820833 6.95752885,1.83333333 13.1923077,1.83333333 C17.1909904,1.83333333 20.8141635,3.83625 22.8839423,7.19125 L24.5,9.80970833 L26.1160577,7.19079167 C28.1858365,3.83625 31.8090096,1.83333333 35.8076923,1.83333333 C42.0424712,1.83333333 47.1153846,6.76820833 47.1153846,12.8333333 C47.1153846,15.8010417 45.9629423,18.6060417 43.8696058,20.7317917 Z" id="Shape"></path>
                </g>
                <path d="M45.7893225,31.8121939 C46.6353781,38.9189164 53.9116015,44.3338897 54.7576571,44.5030284 C55.6037127,44.6721671 56.7884079,44.164751 55.2650732,41.1191681 C55.2650732,41.1191681 51.2042959,37.2271673 49.3430459,26.9049988 C47.4814338,16.5835547 42.9128782,13.1993321 42.9128782,13.1993321 C42.9128782,13.1993321 35.9756566,4.7387758 24.9769334,6.76952663 C24.9769334,6.76952663 16.3472384,9.64597091 13.6399328,9.30769353 C10.932265,8.96905397 10.0862094,6.60038794 10.0862094,6.60038794 C10.0862094,6.60038794 14.4859884,5.07741536 13.9782102,0.00108156103 C13.9782102,0.00108156103 9.91707068,-0.168057129 7.0406264,3.72394366 C7.0406264,3.72394366 2.30293216,3.72394366 2.30293216,6.09260969 C2.30293216,6.09260969 -0.573512124,7.95385965 0.103042638,8.79991528 C0.779959581,9.64597091 4.16418212,10.1537492 5.17937644,10.3228879 C5.17937644,10.3228879 7.88668203,15.9066377 9.74829417,17.2604716 C9.74829417,17.2604716 6.87148771,22.1673045 7.21012727,23.6906393 C7.54804247,25.2132497 8.90223854,27.0744997 11.1017659,27.4131392 C11.1017659,27.4131392 12.7091267,26.9901114 11.0173776,24.6210832 C9.32526635,22.252055 14.2320993,19.206472 14.2320993,19.206472 C14.2320993,19.206472 16.0933492,19.3752485 17.2780444,19.0373333 C17.2780444,19.0373333 23.030933,23.6055267 24.5539056,23.6055267 C24.5539056,23.6055267 21.5079604,27.836167 23.3692104,33.2507782 C23.3692104,33.2507782 26.0768782,36.4654999 29.4607385,38.4958885 C32.844961,40.5266394 31.660628,44.9260562 31.4914893,45.4338345 C31.3219885,45.9412505 29.4607385,49.494974 29.4607385,49.494974 C29.4607385,49.494974 30.6454337,51.186723 33.8605176,47.6333618 C37.0752392,44.0800006 36.8217123,39.4270568 36.0600449,38.327112 C35.2987397,37.2271673 29.4607385,35.9580838 30.4759328,31.558667 C30.4759328,31.558667 31.660628,29.3587774 35.7217675,26.8206105 C39.7825448,24.2824436 40.5442122,20.1369159 40.5442122,20.1369159 C40.5442122,20.1369159 44.9432669,24.7054714 45.7893225,31.8121939 Z" id="Fill-1" fill="url(#linearGradient-1)" transform="translate(28.000000, 24.948726) scale(-1, 1) translate(-28.000000, -24.948726) "></path>
                <path d="M81.2593283,40.7699472 C81.6521398,44.0694969 85.0303864,46.5835917 85.4231979,46.6621203 C85.8160095,46.740649 86.3660465,46.505063 85.658784,45.0910423 C85.658784,45.0910423 83.7734231,43.2840419 82.9092713,38.4916066 C82.0449514,33.6995075 79.9238363,32.1282614 79.9238363,32.1282614 C79.9238363,32.1282614 76.7029834,28.2001459 71.5964334,29.1429945 C71.5964334,29.1429945 67.5897892,30.4784865 66.3328259,30.3214291 C65.0756945,30.1642036 64.6828829,29.0644658 64.6828829,29.0644658 C64.6828829,29.0644658 66.7256375,28.3573714 66.4898833,26.0005022 C66.4898833,26.0005022 64.6043542,25.9219735 63.2688623,27.7289738 C63.2688623,27.7289738 61.0692185,27.7289738 61.0692185,28.8287116 C61.0692185,28.8287116 59.7337265,29.6928634 60.0478412,30.085675 C60.3621241,30.4784865 61.9333703,30.7142407 62.4047105,30.7927694 C62.4047105,30.7927694 63.6616738,33.3852247 64.5259937,34.0137904 C64.5259937,34.0137904 63.1903336,36.2919628 63.3475591,36.9992254 C63.5044483,37.7061516 64.1331822,38.5703034 65.1543913,38.7275289 C65.1543913,38.7275289 65.900666,38.5311232 65.115211,37.4312172 C64.329588,36.3313112 66.6077604,34.9172906 66.6077604,34.9172906 C66.6077604,34.9172906 67.4719121,34.9956511 68.0219492,34.8387619 C68.0219492,34.8387619 70.6929332,36.9597088 71.4000276,36.9597088 C71.4000276,36.9597088 69.9858388,38.9239347 70.8499905,41.4378613 C70.8499905,41.4378613 72.107122,42.9304107 73.6782,43.8730911 C75.2494462,44.8159397 74.6995773,46.8585261 74.6210486,47.0942803 C74.5423518,47.3298663 73.6782,48.9798093 73.6782,48.9798093 C73.6782,48.9798093 74.2282371,49.7652643 75.7209546,48.1154894 C77.2135039,46.4657146 77.095795,44.3054192 76.7421637,43.7947306 C76.3887006,43.2840419 73.6782,42.6948246 74.1495402,40.6522382 C74.1495402,40.6522382 74.6995773,39.630861 76.5851063,38.4524263 C78.4704672,37.2739917 78.8240985,35.3492824 78.8240985,35.3492824 C78.8240985,35.3492824 80.8665168,37.4703975 81.2593283,40.7699472 Z" id="Fill-1" fill="url(#linearGradient-1)"></path>
            </g>
        </g>
    </g>
</svg>