<?xml version="1.0" encoding="UTF-8"?>
<svg version="1.1" width="190px" height="190px" viewBox="0 0 190 190" xmlns="http://www.w3.org/2000/svg">
<title>Artboard Copy 2</title>
<desc>Created with Sketch.</desc>
<g fill="none" fill-rule="evenodd">
<g fill="#40d5bb">
<g transform="translate(56 40)">
<path d="m25.269 108.75s6.4185-7.991 14.49-18.76c7.6094-10.15 17.919-21.947 17.079-36.384-0.82903-14.243-13.453-27.392-22.093-36.553-9.4086-9.9755-15.746-16.05-15.746-16.05s9.6044-3.4627 19.166 2.4909c14.433 8.9857 38.749 31.097 39.79 48.994 1.1928 20.504-22.378 45.204-36.943 55.19-6.5706 4.5043-15.744 1.0715-15.744 1.0715"/>
<path d="m4.4631 93.113s4.5685-5.6663 10.315-13.302c5.4169-7.1977 12.756-15.563 12.158-25.8-0.59039-10.099-9.5768-19.424-15.728-25.92-6.6971-7.0733-11.208-11.381-11.208-11.381s6.8377-2.4551 13.644 1.7661c10.275 6.3723 27.584 22.051 28.325 34.742 0.84944 14.54-15.93 32.054-26.298 39.135-4.6769 3.1942-11.207 0.76019-11.207 0.76019"/>
</g>
</g>
</g>
</svg>
